<svg xmlns="http://www.w3.org/2000/svg" version="1.1" xmlns:xlink="http://www.w3.org/1999/xlink" xmlns:svgjs="http://svgjs.dev/svgjs" width="2000" height="1999" viewBox="0 0 2000 1999"><g transform="matrix(1,0,0,1,-0.431486880466764,-0.4312711370263287)"><svg viewBox="0 0 343 343" data-background-color="#ffffff" preserveAspectRatio="xMidYMid meet" height="1999" width="2000" xmlns="http://www.w3.org/2000/svg" xmlns:xlink="http://www.w3.org/1999/xlink"><g id="tight-bounds" transform="matrix(1,0,0,1,0.0740000000000407,0.07400000000001228)"><svg viewBox="0 0 342.85155851775386 342.85155851775386" height="342.85155851775386" width="342.85155851775386"><g><svg></svg></g><g><svg viewBox="0 0 342.85155851775386 342.85155851775386" height="342.85155851775386" width="342.85155851775386"><g><path d="M0 171.426c0-94.676 76.75-171.426 171.426-171.426 94.676 0 171.426 76.75 171.426 171.426 0 94.676-76.75 171.426-171.426 171.426-94.676 0-171.426-76.75-171.426-171.426zM171.426 333.962c89.766 0 162.536-72.77 162.536-162.536 0-89.766-72.77-162.536-162.536-162.537-89.766 0-162.536 72.77-162.537 162.537 0 89.766 72.77 162.536 162.537 162.536z" data-fill-palette-color="tertiary" fill="#4790fc" stroke="transparent"></path><ellipse rx="164.56874808852186" ry="164.56874808852186" cx="171.42577925887693" cy="171.42577925887693" fill="#4790fc" stroke="transparent" stroke-width="0" fill-opacity="1" data-fill-palette-color="tertiary"></ellipse></g><g transform="matrix(1,0,0,1,64.84655864529837,122.13898096076221)"><svg viewBox="0 0 213.1584412271571 98.57359659622942" height="98.57359659622942" width="213.1584412271571"><g><svg viewBox="0 0 213.1584412271571 98.57359659622942" height="98.57359659622942" width="213.1584412271571"><g><svg viewBox="0 0 213.1584412271571 98.57359659622942" height="98.57359659622942" width="213.1584412271571"><g><svg viewBox="0 0 213.1584412271571 98.57359659622942" height="98.57359659622942" width="213.1584412271571"><g id="textblocktransform"><svg viewBox="0 0 213.1584412271571 98.57359659622942" height="98.57359659622942" width="213.1584412271571" id="textblock"><g><svg viewBox="0 0 213.1584412271571 98.57359659622942" height="98.57359659622942" width="213.1584412271571"><g transform="matrix(1,0,0,1,0,0)"><svg width="213.1584412271571" viewBox="2.1 -35.4 76.55000000000001 35.4" height="98.57359659622942" data-palette-color="#ffffff"><path d="M27.05-35.4L27.05-35.4Q26.85-33.65 26.78-32 26.7-30.35 26.7-29.5L26.7-29.5Q26.7-28.6 26.75-27.78 26.8-26.95 26.85-26.4L26.85-26.4 25.7-26.4Q25.4-29.35 24.85-31.08 24.3-32.8 22.98-33.52 21.65-34.25 19-34.25L19-34.25 14.85-34.25Q13.15-34.25 12.28-33.98 11.4-33.7 11.1-32.83 10.8-31.95 10.8-30.1L10.8-30.1 10.8-5.3Q10.8-3.5 11.1-2.6 11.4-1.7 12.28-1.43 13.15-1.15 14.85-1.15L14.85-1.15 18.5-1.15Q21.65-1.15 23.28-2 24.9-2.85 25.63-4.78 26.35-6.7 26.7-10L26.7-10 27.85-10Q27.7-8.65 27.7-6.4L27.7-6.4Q27.7-5.45 27.78-3.68 27.85-1.9 28.05 0L28.05 0Q25.5-0.1 22.3-0.13 19.1-0.15 16.6-0.15L16.6-0.15Q15.1-0.15 12.63-0.15 10.15-0.15 7.35-0.13 4.55-0.1 2.1 0L2.1 0 2.1-1Q3.8-1.1 4.67-1.4 5.55-1.7 5.85-2.6 6.15-3.5 6.15-5.3L6.15-5.3 6.15-30.1Q6.15-31.95 5.85-32.83 5.55-33.7 4.67-34.02 3.8-34.35 2.1-34.4L2.1-34.4 2.1-35.4Q4.55-35.35 7.35-35.3 10.15-35.25 12.63-35.25 15.1-35.25 16.6-35.25L16.6-35.25Q18.9-35.25 21.83-35.27 24.75-35.3 27.05-35.4ZM9.3-18.3L18.45-18.3Q18.45-18.3 18.45-17.8 18.45-17.3 18.45-17.3L18.45-17.3 9.3-17.3Q9.3-17.3 9.3-17.8 9.3-18.3 9.3-18.3L9.3-18.3ZM18.75-24.9L19.9-24.9Q19.7-22.05 19.73-20.55 19.75-19.05 19.75-17.8L19.75-17.8Q19.75-16.55 19.8-15.05 19.85-13.55 20.05-10.7L20.05-10.7 18.9-10.7Q18.7-12.3 18.43-13.83 18.15-15.35 17.23-16.32 16.3-17.3 14.1-17.3L14.1-17.3 14.1-18.3Q16.3-18.3 17.18-19.45 18.05-20.6 18.3-22.15 18.55-23.7 18.75-24.9L18.75-24.9ZM65.9 0L65.9 0 65.9-1Q67.59-1.1 68.47-1.4 69.34-1.7 69.65-2.6 69.95-3.5 69.95-5.3L69.95-5.3 69.95-30.1Q69.95-31.95 69.65-32.83 69.34-33.7 68.47-34.02 67.59-34.35 65.9-34.4L65.9-34.4 65.9-35.4Q67.05-35.35 68.8-35.3 70.55-35.25 72.25-35.25L72.25-35.25Q74.2-35.25 75.9-35.3 77.59-35.35 78.65-35.4L78.65-35.4 78.65-34.4Q76.95-34.35 76.07-34.02 75.2-33.7 74.9-32.83 74.59-31.95 74.59-30.1L74.59-30.1 74.59-5.3Q74.59-3.5 74.9-2.6 75.2-1.7 76.07-1.4 76.95-1.1 78.65-1L78.65-1 78.65 0Q77.59-0.1 75.9-0.13 74.2-0.15 72.25-0.15L72.25-0.15Q70.55-0.15 68.8-0.13 67.05-0.1 65.9 0ZM45 0L45 0 45-1Q46.7-1.1 47.57-1.4 48.45-1.7 48.75-2.6 49.05-3.5 49.05-5.3L49.05-5.3 49.05-30.1Q49.05-31.95 48.75-32.83 48.45-33.7 47.57-34.02 46.7-34.35 45-34.4L45-34.4 45-35.4Q46.05-35.35 47.75-35.3 49.45-35.25 51.4-35.25L51.4-35.25Q53.15-35.25 54.87-35.3 56.6-35.35 57.75-35.4L57.75-35.4 57.75-34.4Q56.05-34.35 55.17-34.02 54.3-33.7 54-32.83 53.7-31.95 53.7-30.1L53.7-30.1 53.7-5.3Q53.7-3.5 54-2.6 54.3-1.7 55.17-1.4 56.05-1.1 57.75-1L57.75-1 57.75 0Q56.6-0.1 54.87-0.13 53.15-0.15 51.4-0.15L51.4-0.15Q49.45-0.15 47.75-0.13 46.05-0.1 45 0ZM71.7-17.3L51.95-17.3 51.95-18.3 71.7-18.3 71.7-17.3Z" opacity="1" transform="matrix(1,0,0,1,0,0)" fill="#ffffff" class="wordmark-text-0" data-fill-palette-color="quaternary" id="text-0"></path></svg></g></svg></g></svg></g></svg></g><g></g></svg></g></svg></g></svg></g></svg></g><defs></defs></svg><rect width="342.85155851775386" height="342.85155851775386" fill="none" stroke="none" visibility="hidden"></rect></g></svg></g></svg>